<?xml version="1.0" encoding="utf-8" ?>
<svg xmlns="http://www.w3.org/2000/svg" xmlns:xlink="http://www.w3.org/1999/xlink" width="73" height="65">
	<path fill="white" transform="translate(0.134949 0.300781)" d="M34.721634 0.32487825C34.562233 0.50866807 34.114433 1.6264998 33.726479 2.8085241L33.021248 4.9578328L30.476366 4.9578328C27.98525 4.9578328 27.925215 4.9677668 27.626554 5.426095C27.452147 5.6939468 27.37273 6.056942 27.441317 6.2743564C27.507431 6.4833651 28.444071 7.3144307 29.52282 8.1214247L31.484438 9.588686L30.711 11.938216C30.046425 13.956465 29.969099 14.357286 30.160986 14.781034C30.521011 15.575419 31.170767 15.414365 33.183113 14.032693C34.177696 13.34969 35.03606 12.790871 35.090397 12.790871C35.379177 12.790871 37.621029 14.575657 37.486328 14.698502C37.398933 14.77817 36.535061 15.124733 35.566696 15.468431C34.104935 15.987323 33.786324 16.172642 33.68943 16.561045C33.505905 17.296587 34.084415 17.645634 36.282379 18.125551C37.379555 18.365128 38.391808 18.624573 38.532017 18.70233C38.680397 18.784481 37.371956 19.217972 35.397228 19.740685C31.60014 20.745796 31.524715 20.7756 31.216747 21.386387C30.924927 21.964884 31.226435 22.63719 31.889872 22.887465C32.163643 22.990824 34.482246 23.349422 37.042328 23.684141C39.602406 24.018862 41.803787 24.35186 41.934311 24.424078C42.064831 24.496294 40.141209 24.967993 37.659595 25.472174C26.443882 27.750822 24.2311 28.265701 23.885704 28.676842C23.463932 29.178728 23.463932 29.641451 23.885704 30.163208C24.422228 30.826914 26.736275 31.120939 37.517296 31.895454C45.440529 32.464783 47.808338 32.699966 47.346478 32.871719C46.046394 33.355457 38.937641 34.371265 29.442833 35.430065C21.84296 36.277561 17.909462 36.820717 17.392506 37.094109C16.87137 37.369793 16.720142 37.621407 16.716532 38.218628C16.710642 39.224693 16.960855 39.289459 23.657528 40.014111C35.334339 41.277523 49.720943 43.129177 52.37241 43.709583L53.09626 43.867966L52.336311 43.992718C50.678101 44.265156 37.115471 45.062981 19.183517 45.94315C11.03553 46.343014 8.7222452 46.535591 8.4281454 46.838215C7.9678054 47.312401 7.930759 48.028072 8.3398018 48.550976C8.6772194 48.982174 9.0628929 49.109985 11.342931 49.545391C20.241179 51.244392 39.025986 53.617809 62.204823 55.971733C66.378464 56.395481 69.833954 56.783119 69.883537 56.83279C69.932938 56.882656 69.893799 56.923347 69.796532 56.923347C69.699066 56.923347 68.488083 57.179928 67.105354 57.493443C61.520107 58.75972 55.054646 59.718212 48.251579 60.288116C43.555664 60.681679 32.769512 60.734409 28.207916 60.386314C18.916586 59.67733 9.8764181 58.213314 2.8525863 56.279892C1.5509832 55.921673 0.37534156 55.671017 0.24026056 55.723171C-0.13496444 55.867989 -0.05213001 56.693516 0.35976252 56.915325C1.5069062 57.532608 10.051776 59.451508 15.193784 60.246277C33.098381 63.014202 50.590328 62.506199 67.820282 58.718258C71.625534 57.881653 72 57.714485 72 56.852467C72 55.738457 71.751877 55.655731 67.060326 55.207912C53.035652 53.868652 34.203537 51.693359 23.078259 50.127518C18.24403 49.447189 11.191891 48.272045 10.15912 47.97477C9.3771315 47.749714 10.391474 47.680553 26.118055 46.885784C48.237713 45.768147 54.321678 45.318989 54.937237 44.758831C55.439186 44.302032 55.391685 43.246288 54.853642 42.906796C53.82391 42.256844 43.447182 40.765701 27.447966 38.968685C23.686218 38.546276 20.330471 38.200478 19.990963 38.200478C19.651457 38.200478 19.373505 38.13036 19.373505 38.044388C19.373505 37.856205 23.66494 37.275604 31.722681 36.373661C41.006794 35.334541 47.724369 34.317776 48.917679 33.770988C49.83057 33.352783 49.863815 31.875967 48.968025 31.533415C48.412312 31.320969 43.274101 30.827297 37.802277 30.460672C32.77293 30.123661 27.150257 29.626741 26.221029 29.437029C25.678236 29.32622 26.256557 29.160196 29.545809 28.48197C37.849014 26.770164 43.403866 25.555088 43.729691 25.379896C44.474064 24.979265 44.384579 23.694267 43.587009 23.328789C43.324257 23.208427 40.915409 22.806076 38.233929 22.434675C35.552448 22.063274 33.326363 21.727028 33.287037 21.687481C33.247707 21.647934 33.499443 21.553555 33.846359 21.4779C34.954556 21.236412 39.208565 20.053432 39.733307 19.840796C40.011829 19.728075 40.342598 19.385904 40.468369 19.080225C40.658737 18.618076 40.645058 18.444605 40.387245 18.048941C40.216827 17.787203 39.843311 17.519922 39.55719 17.454584C38.20961 17.147566 36.730179 16.776548 36.472366 16.681215C36.304226 16.618933 36.741009 16.367702 37.538193 16.068327C40.264133 15.044683 40.237156 14.571454 37.327309 12.373237C36.700352 11.899624 35.995117 11.409963 35.759914 11.285016C35.247135 11.012771 35.039482 11.107722 33.187294 12.462456C32.475792 12.982875 31.857193 13.371852 31.812355 13.326956C31.767708 13.282059 32.028942 12.407434 32.392956 11.383408C32.900982 9.953783 33.009464 9.4368019 32.860134 9.1561499C32.752983 8.9549742 31.983154 8.2681513 31.149111 7.6298542C30.315256 6.9913664 29.63282 6.4430542 29.63282 6.4111485C29.63282 6.3794346 30.473324 6.3939538 31.500586 6.4438176C32.709854 6.5022788 33.511982 6.4569993 33.775684 6.3150496C34.071495 6.1559052 34.358948 5.5355673 34.824795 4.0513024L35.466572 2.0066888L36.059334 3.9255917C36.38554 4.9811411 36.807503 5.9858723 36.997299 6.1585813C37.263283 6.4006414 37.814056 6.4848928 39.405392 6.5271149L41.468842 6.5817556L39.834759 7.7280536C38.144253 8.9140902 37.928429 9.1534758 38.113476 9.6385508C38.322842 10.187055 39.048973 9.9134712 40.937069 8.5745945C43.281891 6.9116983 43.359406 6.8352785 43.359406 6.1837993C43.359406 5.2950358 42.920532 5.1488829 40.250641 5.1488829L37.831726 5.1488829L37.235737 3.1906235C36.908009 2.1134853 36.596428 1.0823903 36.54361 0.89917368C36.290928 0.023401935 35.263477 -0.30042735 34.721634 0.32487825Z"/>
</svg>
